<?xml version="1.0" encoding="UTF-8"?>
<svg id="Capa_1" xmlns="http://www.w3.org/2000/svg" viewBox="0 0 140 42">
  <defs>
    <style>
      .cls-1 {
        fill: #fff;
      }
    </style>
  </defs>
  <g>
    <path class="cls-1" d="M8.04,5.85c0-.5-.1-.86-.31-1.08-.21-.22-.56-.33-1.06-.33s-.85.11-1.06.33c-.21.22-.31.58-.31,1.08v17.87c0,.47.11.82.33,1.06.22.24.58.35,1.08.35.94,0,1.41-.54,1.41-1.61v-6.82h-1.45c-.13,0-.2-.08-.2-.24v-3.41c0-.16.07-.24.2-.24h5.68c.13,0,.2.08.2.24v15.4c0,.13-.07.2-.2.2h-2.82c-.13,0-.2-.05-.2-.16l-.59-2.23h-.24c-.6,1.86-1.79,2.78-3.57,2.78-2.77,0-4.15-1.62-4.15-4.86V5.62c0-1.65.53-2.89,1.59-3.74,1.06-.85,2.48-1.27,4.25-1.27s3.27.42,4.33,1.27,1.59,2.1,1.59,3.74v5.21c0,.13-.07.2-.2.2h-4.12c-.13,0-.2-.07-.2-.2v-4.98Z"/>
    <path class="cls-1" d="M16,23.96V1.19c0-.13.07-.2.2-.2h4.12c.13,0,.2.07.2.2v22.54c0,.5.1.86.31,1.08.21.22.56.33,1.06.33s.85-.11,1.06-.33c.21-.22.31-.58.31-1.08V1.19c0-.13.07-.2.2-.2h4.12c.13,0,.2.07.2.2v22.77c0,1.67-.52,2.93-1.57,3.78-1.05.85-2.5,1.27-4.35,1.27s-3.19-.42-4.25-1.27c-1.06-.85-1.59-2.11-1.59-3.78Z"/>
    <path class="cls-1" d="M43.12,28.67h-4.12c-.13,0-.2-.07-.2-.2l-.67-5.37h-3.37l-.67,5.37c0,.13-.07.2-.2.2h-4.12c-.05,0-.1-.02-.16-.06-.05-.04-.07-.09-.04-.14l3.8-27.28c.05-.13.12-.2.2-.2h5.76c.08,0,.14.07.2.2l3.76,27.28c.03.05.01.1-.04.14-.05.04-.1.06-.16.06ZM37.24,15.69c-.13-1.1-.27-2.73-.41-4.9-.14-2.17-.22-3.68-.22-4.55h-.24c0,.89-.08,2.42-.24,4.59-.16,2.17-.3,3.79-.43,4.86l-.43,3.53h2.39l-.43-3.53Z"/>
    <path class="cls-1" d="M53.2,28.67c-.1,0-.18-.04-.24-.12-.18-.29-.27-.78-.27-1.49v-9.17c0-.52-.06-.88-.18-1.06-.12-.18-.41-.27-.88-.27h-1.37v11.92c0,.13-.07.2-.2.2h-4.12c-.13,0-.2-.07-.2-.2V1.19c0-.13.07-.2.2-.2h5.33c1.86,0,3.29.41,4.31,1.23,1.02.82,1.53,2.06,1.53,3.7v4.86c0,.89-.18,1.66-.55,2.31-.37.65-.91,1.08-1.65,1.29v.24c.76.13,1.33.43,1.71.9.38.47.57,1.15.57,2.04v7.37c0,.89.03,1.56.08,2.02.05.46.21.95.47,1.47.08.16.04.24-.12.24h-4.43ZM52.37,5.19c-.21-.21-.56-.31-1.06-.31h-1.06v7.92h1.06c.5,0,.85-.1,1.06-.31.21-.21.31-.55.31-1.02v-5.25c0-.47-.1-.81-.31-1.02Z"/>
    <path class="cls-1" d="M72.83,5.97v17.68c0,1.67-.53,2.93-1.59,3.76-1.06.84-2.52,1.25-4.37,1.25h-5.61c-.13,0-.2-.07-.2-.2V1.19c0-.13.07-.2.2-.2h5.61c1.86,0,3.31.42,4.37,1.25,1.06.84,1.59,2.08,1.59,3.72ZM68.01,5.19c-.21-.21-.56-.31-1.06-.31h-1.37v19.87h1.37c.5,0,.85-.1,1.06-.31s.31-.55.31-1.02V6.21c0-.47-.1-.81-.31-1.02Z"/>
    <path class="cls-1" d="M76.4,1.19c0-.13.07-.2.2-.2h4.12c.13,0,.2.07.2.2v27.28c0,.13-.07.2-.2.2h-4.12c-.13,0-.2-.07-.2-.2V1.19Z"/>
    <path class="cls-1" d="M96.82,28.67h-4.12c-.13,0-.2-.07-.2-.2l-.67-5.37h-3.37l-.67,5.37c0,.13-.06.2-.2.2h-4.12c-.05,0-.1-.02-.16-.06-.05-.04-.07-.09-.04-.14l3.8-27.28c.05-.13.12-.2.2-.2h5.76c.08,0,.14.07.2.2l3.76,27.28c.03.05.01.1-.04.14-.05.04-.1.06-.16.06ZM90.94,15.69c-.13-1.1-.27-2.73-.41-4.9-.14-2.17-.22-3.68-.22-4.55h-.24c0,.89-.08,2.42-.24,4.59-.16,2.17-.3,3.79-.43,4.86l-.43,3.53h2.39l-.43-3.53Z"/>
    <path class="cls-1" d="M99.44,1.19c0-.13.07-.2.2-.2h3.92c.13,0,.2.05.2.16l3.88,19.32h.24c-.34-2.77-.6-5.49-.78-8.17-.18-2.68-.27-4.87-.27-6.57V1.19c0-.13.07-.2.2-.2h4c.13,0,.2.07.2.2v27.28c0,.13-.07.2-.2.2h-3.96c-.13,0-.21-.05-.24-.16l-3.84-18.7h-.27c.37,2.3.64,4.63.82,6.98.18,2.35.27,4.48.27,6.39v5.29c0,.13-.06.2-.2.2h-3.96c-.13,0-.2-.07-.2-.2V1.19Z"/>
    <path class="cls-1" d="M119.82,12.56h4.39c.13,0,.2.07.2.2v3.49c0,.13-.07.2-.2.2h-4.39v8.35h5.17c.13,0,.2.07.2.2v3.49c0,.13-.07.2-.2.2h-9.49c-.13,0-.2-.07-.2-.2V1.19c0-.13.07-.2.2-.2h9.49c.13,0,.2.07.2.2v3.45c0,.13-.07.2-.2.2h-5.17v7.72Z"/>
    <path class="cls-1" d="M127.39,24v-4.98c0-.13.07-.2.2-.2h4.12c.13,0,.2.07.2.2v4.78c0,.47.1.82.31,1.04.21.22.56.33,1.06.33s.85-.11,1.06-.33c.21-.22.31-.57.31-1.04v-3.68c0-.84-.25-1.54-.75-2.12s-1.29-1.29-2.39-2.16c-.97-.76-1.71-1.37-2.21-1.84-.51-.47-.95-1.08-1.33-1.82-.38-.75-.57-1.63-.57-2.65v-3.92c0-1.65.54-2.89,1.61-3.74,1.07-.85,2.48-1.27,4.23-1.27s3.27.42,4.33,1.27,1.59,2.1,1.59,3.74v4.78c0,.13-.07.2-.2.2h-4.12c-.13,0-.2-.07-.2-.2v-4.55c0-.5-.1-.86-.31-1.08-.21-.22-.56-.33-1.06-.33s-.85.11-1.06.33c-.21.22-.31.58-.31,1.08v3.1c0,.76.24,1.4.71,1.94.47.54,1.23,1.21,2.27,2.02.91.68,1.65,1.29,2.21,1.82.56.54,1.05,1.2,1.45,1.98.41.78.61,1.69.61,2.7v4.59c0,1.67-.53,2.93-1.59,3.78-1.06.85-2.48,1.27-4.25,1.27s-3.31-.42-4.35-1.27c-1.05-.85-1.57-2.11-1.57-3.78Z"/>
  </g>
  <g>
    <path class="cls-1" d="M7.02,34.87v3.13c0,1.01-.29,1.75-.87,2.22-.58.47-1.39.71-2.43.71H.7s-.06-.02-.06-.06v-8.85s.02-.06.06-.06h3.03c1.04,0,1.85.23,2.43.7.58.47.87,1.21.87,2.23ZM3.74,33.42h-1.3v6.03h1.3c.98,0,1.48-.51,1.48-1.54v-2.96c0-1.02-.49-1.53-1.48-1.53Z"/>
    <path class="cls-1" d="M18.13,35.62h3.08s.06.02.06.06v1.34s-.02.06-.06.06h-3.08v2.37h3.33s.06.02.06.06v1.35s-.02.06-.06.06h-5.08s-.06-.02-.06-.06v-8.85s.02-.06.06-.06h5.08s.06.02.06.06v1.32c0,.05-.02.08-.06.08h-3.33v2.21Z"/>
    <path class="cls-1" d="M35.85,40.84c0,.06-.02.09-.06.09h-5.08s-.06-.02-.06-.06v-8.85s.02-.06.06-.06h1.68s.06.02.06.06v7.44h3.33s.06.03.06.1v1.29Z"/>
    <path class="cls-1" d="M61.12,34.29v1.22c0,.81-.26,1.4-.79,1.76-.53.36-1.31.54-2.34.54h-1.22v3.05s-.02.06-.06.06h-1.68s-.06-.02-.06-.06v-8.85s.02-.06.06-.06h2.96c1.03,0,1.81.18,2.34.55.53.36.79.96.79,1.79ZM59.01,33.63c-.19-.14-.53-.21-1-.21h-1.23v2.93h1.23c.47,0,.81-.07,1-.2s.29-.38.29-.72v-1.04c0-.36-.1-.6-.29-.74Z"/>
    <path class="cls-1" d="M74.35,40.93s-.06-.02-.08-.06l-.47-1.79h-2.56l-.47,1.79s-.04.06-.08.06h-1.73c-.05,0-.07-.02-.05-.06l2.26-8.85s.04-.06.08-.06h2.56s.05.02.06.06l2.25,8.85s0,.06-.05.06h-1.73ZM72.9,35.69c-.05-.27-.11-.64-.17-1.11s-.1-.82-.11-1.05h-.19c-.02.23-.06.58-.11,1.04s-.11.84-.17,1.12l-.52,1.95h1.79l-.52-1.95ZM71.81,31.09l1.06-1.81s0-.01.02-.02c.01,0,.02,0,.03,0h1.87s.07.02.08.05c.01.03,0,.07-.02.11l-1.64,1.77h-.04s-1.3.01-1.3.01c-.03,0-.06-.01-.07-.03-.01-.02-.01-.05,0-.08Z"/>
    <path class="cls-1" d="M89.33,40.93s-.06-.01-.08-.04c-.06-.11-.09-.32-.09-.62v-2.05c0-.34-.08-.57-.24-.71s-.43-.2-.8-.2h-1.48v3.55s-.02.06-.06.06h-1.68s-.06-.02-.06-.06v-8.85s.02-.06.06-.06h3.43c.87,0,1.51.15,1.95.46.43.31.65.8.65,1.48v.93c0,.47-.11.86-.32,1.16-.22.3-.51.48-.87.55v.08c.38.05.69.2.92.43.23.24.34.56.34.98v1.7c0,.25,0,.47.03.64.02.17.06.34.11.5.02.05,0,.08-.05.08h-1.76ZM88.9,33.58c-.15-.12-.39-.18-.72-.18h-1.53v2.48h1.58c.31,0,.54-.06.69-.18s.22-.32.22-.6v-.9c0-.28-.08-.48-.23-.6Z"/>
    <path class="cls-1" d="M104.9,40.93s-.06-.02-.08-.06l-.47-1.79h-2.56l-.47,1.79s-.04.06-.08.06h-1.73c-.05,0-.07-.02-.05-.06l2.26-8.85s.04-.06.08-.06h2.56s.05.02.06.06l2.25,8.85s0,.06-.05.06h-1.73ZM103.45,35.69c-.05-.27-.11-.64-.17-1.11-.06-.47-.1-.82-.11-1.05h-.19c-.02.23-.06.58-.11,1.04-.06.47-.11.84-.17,1.12l-.52,1.95h1.79l-.52-1.95Z"/>
    <path class="cls-1" d="M115.4,32.01s.02-.06.06-.06h2.18s.04.02.05.05l1.2,3.88c.13.44.24.91.32,1.39.09.49.14.89.16,1.2h.11c.02-.32.07-.73.15-1.21.09-.49.19-.95.32-1.38l1.18-3.88s.03-.05.06-.05h2.16s.06.02.06.06v8.85s-.02.06-.06.06h-1.63s-.06-.02-.06-.06v-2.61c0-1.39.06-2.54.18-3.43h-.1l-1.64,6.05s-.02.05-.06.05h-1.26s-.06-.02-.06-.05l-1.64-6.05h-.1c.12.9.18,2.04.18,3.43v2.61s-.02.06-.06.06h-1.63s-.06-.02-.06-.06v-8.85Z"/>
    <path class="cls-1" d="M132.72,38v-3.13c0-1.03.3-1.79.9-2.3.6-.5,1.41-.76,2.42-.76s1.85.25,2.44.76c.59.5.88,1.27.88,2.3v3.13c0,1.03-.29,1.79-.88,2.29-.59.5-1.4.75-2.44.75s-1.81-.25-2.42-.75c-.6-.5-.9-1.26-.9-2.29ZM137.55,37.91v-2.96c0-.54-.13-.95-.39-1.23-.26-.28-.63-.42-1.13-.42s-.85.14-1.11.42-.4.69-.4,1.23v2.96c0,.54.13.95.39,1.23s.64.42,1.12.42.87-.14,1.13-.41c.26-.28.39-.69.39-1.24Z"/>
  </g>
</svg>