<?xml version="1.0" encoding="UTF-8"?>
<svg id="Capa_1" xmlns="http://www.w3.org/2000/svg" viewBox="0 0 28 32">
  <defs>
    <style>
      .cls-1 {
        fill: #fff;
      }
    </style>
  </defs>
  <path class="cls-1" d="M20.48,5.1c1.22,0,2.22-.99,2.22-2.22s-.99-2.22-2.22-2.22-2.22.99-2.22,2.22.99,2.22,2.22,2.22"/>
  <path class="cls-1" d="M19.69,18.16c-.08-.06-.16-.11-.25-.16h0,0s-.06-.04-.09-.05l-1.27-.71-5.22-3.02h0s-.02,0-.02,0l-8.18,14.17-.38.65c-.05.07-.1.15-.14.23h0s0,0,0,0c-.01.02-.02.05-.04.08h0s0,.01,0,.01c-.1.23-.16.49-.16.76,0,1.01.76,1.82,1.69,1.82.56,0,1.05-.29,1.36-.73l.47-.81,2.17-3.76,8.92-2.39c.11-.02.21-.05.31-.08l.1-.03h0c1.23-.46,2.11-1.71,2.11-3.19,0-.65-.17-1.26-.47-1.77-.23-.4-.54-.75-.91-1.01M14.9,21.66l-2.84.76,2.04-3.53,1.04.6,2.49,1.44-2.72.73Z"/>
  <path class="cls-1" d="M4.83,16.68l.27.77.77-.13.2-.03,3.75-.63-1.6-.94,3.07-5.31,4.33-.92h0c.7-.19,1.23-.87,1.23-1.68,0-.95-.72-1.72-1.6-1.72-.14,0-.27.02-.4.05l-5.75,1.22h-.01s-3.83,6.62-3.83,6.62l-1.76-1.03,1.26,3.54.07.2Z"/>
  <polygon class="cls-1" points="3.31 13.03 .91 17.14 4.56 16.52 3.31 13.03"/>
  <polygon class="cls-1" points="7.41 21 9.84 16.86 6.15 17.48 7.41 21"/>
  <polygon class="cls-1" points="5.94 17.52 5.18 17.65 4.97 17.68 4.9 17.49 4.63 16.71 .91 17.34 7.2 21.03 5.94 17.52"/>
  <path class="cls-1" d="M25.86,5.71c-.6,0-1.13.33-1.41.82-.05.08-.09.17-.12.26h0s-.16.35-.16.35l-1.18,2.64s0,0,0,0h-3.49s0,0,0,0l-1.74,3.14s0,0,0,0h7.36s0,0,0,0v-.02s0,0,0,0c0,0,0,0,0,0l1.86-4.17.42-.95s0,0,0,0c.05-.15.07-.31.07-.47,0-.89-.72-1.62-1.62-1.62"/>
</svg>